HIERARCHY
ROOT Pelvis
{
	OFFSET 0.000000 0.000000 0.000000
	CHANNELS 6 Xposition Yposition Zposition Zrotation Yrotation Xrotation 
	JOINT Left_hip
	{
		OFFSET 0.067986 -0.089946 -0.007639
		CHANNELS 3 Zrotation Yrotation Xrotation
		JOINT Left_knee
		{
			OFFSET 0.036308 -0.388288 -0.004016
			CHANNELS 3 Zrotation Yrotation Xrotation
			JOINT Left_ankle
			{
				OFFSET -0.012264 -0.413250 -0.042878
				CHANNELS 3 Zrotation Yrotation Xrotation
				JOINT Left_foot
				{
					OFFSET 0.024043 -0.058563 0.118570
					CHANNELS 3 Zrotation Yrotation Xrotation
					End Site
					{
						OFFSET 0.000000 0.000000 0.000000
					}
				}
			}
		}
	}
	JOINT Right_hip
	{
		OFFSET -0.065648 -0.089374 -0.003858
		CHANNELS 3 Zrotation Yrotation Xrotation
		JOINT Right_knee
		{
			OFFSET -0.042132 -0.395021 -0.006361
			CHANNELS 3 Zrotation Yrotation Xrotation
			JOINT Right_ankle
			{
				OFFSET 0.014805 -0.413264 -0.041054
				CHANNELS 3 Zrotation Yrotation Xrotation
				JOINT Right_foot
				{
					OFFSET -0.021758 -0.049013 0.121832
					CHANNELS 3 Zrotation Yrotation Xrotation
					End Site
					{
						OFFSET 0.000000 0.000000 0.000000
					}
				}
			}
		}
	}
	JOINT Spine1
	{
		OFFSET -0.002755 0.104406 -0.022277
		CHANNELS 3 Zrotation Yrotation Xrotation
		JOINT Spine2
		{
			OFFSET 0.004136 0.129393 -0.002186
			CHANNELS 3 Zrotation Yrotation Xrotation
			JOINT Spine3
			{
				OFFSET 0.001906 0.049304 0.025578
				CHANNELS 3 Zrotation Yrotation Xrotation
				JOINT Neck
				{
					OFFSET -0.004620 0.210958 -0.044063
					CHANNELS 3 Zrotation Yrotation Xrotation
					JOINT Head
					{
						OFFSET 0.003833 0.067393 0.052435
						CHANNELS 3 Zrotation Yrotation Xrotation
						End Site
						{
							OFFSET 0.000000 0.000000 0.000000
						}
					}
				}
				JOINT Left_collar
				{
					OFFSET 0.070771 0.116689 -0.037192
					CHANNELS 3 Zrotation Yrotation Xrotation
					JOINT Left_shoulder
					{
						OFFSET 0.080652 0.031596 -0.005617
						CHANNELS 3 Zrotation Yrotation Xrotation
						JOINT Left_elbow
						{
							OFFSET 0.262654 -0.015020 -0.027939
							CHANNELS 3 Zrotation Yrotation Xrotation
							JOINT Left_wrist
							{
								OFFSET 0.250438 0.010062 -0.000990
								CHANNELS 3 Zrotation Yrotation Xrotation
								JOINT Left_palm
								{
									OFFSET 0.081198 -0.010037 -0.013706
									CHANNELS 3 Zrotation Yrotation Xrotation
									End Site
									{
										OFFSET 0.000000 0.000000 0.000000
									}
								}
							}
						}
					}
				}
				JOINT Right_collar
				{
					OFFSET -0.072972 0.115556 -0.040762
					CHANNELS 3 Zrotation Yrotation Xrotation
					JOINT Right_shoulder
					{
						OFFSET -0.082917 0.031841 -0.006673
						CHANNELS 3 Zrotation Yrotation Xrotation
						JOINT Right_elbow
						{
							OFFSET -0.252882 -0.013790 -0.020410
							CHANNELS 3 Zrotation Yrotation Xrotation
							JOINT Right_wrist
							{
								OFFSET -0.255570 0.009163 -0.005138
								CHANNELS 3 Zrotation Yrotation Xrotation
								JOINT Right_palm
								{
									OFFSET -0.080804 -0.007282 -0.010415
									CHANNELS 3 Zrotation Yrotation Xrotation
									End Site
									{
										OFFSET 0.000000 0.000000 0.000000
									}
								}
							}
						}
					}
				}
			}
		}
	}
}
MOTION
Frames: 12
Frame Time: 0.100000
0.000000 0.000000 0.000000 174.673854 24.059484 -16.293446 9.470134 3.871296 6.712078 -4.518710 -20.399606 -2.920724 -8.702562 10.770901 -9.235248 7.139089 0.141496 0.585303 -7.543185 -5.751283 6.841888 5.319427 13.377218 -0.250554 16.617400 -11.855169 -10.368770 -15.082054 10.357581 1.051136 1.327212 1.837859 7.065212 0.586417 -3.243477 0.076123 1.126538 -0.167791 2.323974 0.292268 4.776620 -0.893359 1.273022 -0.528311 -3.318836 -6.205812 0.557282 -8.200208 -1.751351 0.356077 -13.501768 2.116574 -5.935568 -11.110667 2.450036 -6.941396 18.366773 -8.522718 -2.537078 -12.768901 6.750161 -0.927291 -6.138360 3.499245 -4.259385 -9.745760 -5.144745 8.748356 -10.414939 0.557292 3.166635 14.172731 8.741247 4.651598 -4.497410 
0.000169 -0.000045 0.000454 174.654093 24.041664 -16.396498 9.522420 3.898253 6.818393 -4.522716 -20.440127 -2.863850 -8.661143 10.764955 -9.286312 7.115862 0.226055 0.570467 -7.519777 -5.733259 6.986372 5.339849 13.423530 -0.282314 16.532772 -11.864338 -10.378908 -14.922546 10.318184 1.088565 1.298045 1.828249 7.049686 0.606344 -3.274639 0.151784 1.130473 -0.205367 2.358217 0.393517 4.776603 -0.582695 1.249058 -0.515326 -3.201745 -6.262309 0.581615 -8.199493 -1.793225 0.306453 -13.511070 2.081668 -5.960561 -10.894704 2.384870 -6.878931 18.597314 -8.531683 -2.550402 -12.860273 6.780717 -0.962142 -6.199590 3.577189 -4.191924 -9.747177 -5.174651 8.811481 -10.365428 0.564289 3.104951 14.244177 8.780805 4.681176 -4.528563 
0.000361 -0.000095 0.001014 174.660005 23.905916 -16.446544 9.567356 3.909510 6.959975 -4.485166 -20.432617 -2.907274 -8.641231 10.830108 -9.338391 7.105531 0.216389 0.614285 -7.491595 -5.721371 7.089682 5.350267 13.468601 -0.346845 16.462247 -11.789550 -10.363576 -14.762986 10.272606 1.168453 1.265270 1.845341 7.009507 0.628337 -3.272670 0.251250 1.118737 -0.202895 2.380432 0.448314 4.742125 -0.368293 1.227470 -0.609626 -3.033268 -6.324813 0.632126 -8.182381 -1.775545 0.321577 -13.477294 2.097743 -5.995343 -10.856727 2.417090 -6.880769 18.697376 -8.575611 -2.563836 -12.910376 6.895333 -0.994211 -6.197103 3.608754 -4.176627 -9.730742 -5.228604 8.837289 -10.365889 0.552820 3.132586 14.262062 8.828516 4.696509 -4.556486 
0.000196 -0.000114 0.001340 174.666300 23.892796 -16.494161 9.569610 3.921778 7.050763 -4.479710 -20.442975 -2.918008 -8.636177 10.824749 -9.371941 7.108902 0.235799 0.632211 -7.509713 -5.720484 7.205580 5.346778 13.487472 -0.415568 16.418717 -11.791476 -10.366491 -14.681444 10.269036 1.215847 1.272459 1.838306 6.979924 0.653374 -3.296167 0.371909 1.115866 -0.228956 2.401369 0.462305 4.811253 -0.213293 1.136915 -0.552147 -2.946773 -6.429950 0.645568 -8.106311 -1.846115 0.362326 -13.383580 2.044400 -6.000249 -10.649982 2.333292 -6.839335 18.788523 -8.617169 -2.589546 -13.008361 7.002310 -1.018635 -6.177825 3.569061 -4.160333 -9.753251 -5.251343 8.816826 -10.432810 0.549979 3.112540 14.270745 8.897680 4.715039 -4.608957 
-0.000100 -0.000099 0.001382 174.661075 24.007669 -16.598114 9.542417 3.914182 7.157599 -4.484296 -20.522856 -2.944973 -8.601646 10.768657 -9.358900 7.054570 0.301785 0.618874 -7.558384 -5.723473 7.321857 5.353911 13.441670 -0.360255 16.355658 -11.837004 -10.371794 -14.538306 10.276004 1.251173 1.266969 1.831202 7.003361 0.663846 -3.323406 0.492782 1.104667 -0.260683 2.429263 0.520533 4.789185 0.020802 1.133895 -0.550709 -2.857246 -6.565689 0.587999 -8.038122 -1.848544 0.281200 -13.348967 2.004817 -6.049018 -10.611043 2.326235 -6.836982 18.792861 -8.610843 -2.594911 -13.005965 7.132596 -1.018235 -6.141248 3.600629 -4.203386 -9.694665 -5.237474 8.856216 -10.512389 0.547057 3.115022 14.230355 8.899359 4.731796 -4.602409 
-0.000556 -0.000108 0.001277 174.647786 24.106927 -16.727712 9.510860 3.901943 7.250017 -4.507423 -20.598257 -2.887862 -8.555834 10.718691 -9.395375 7.024332 0.391733 0.625676 -7.614971 -5.750259 7.492360 5.344845 13.418064 -0.375834 16.312213 -11.871748 -10.387131 -14.428981 10.313230 1.273021 1.229254 1.852762 6.967834 0.688116 -3.349197 0.659102 1.107894 -0.269502 2.475247 0.596451 4.813711 0.308825 1.110174 -0.528299 -2.775742 -6.723933 0.500543 -7.981958 -1.858010 0.210681 -13.260032 2.031843 -6.269482 -10.490664 2.625002 -6.816743 18.931543 -8.715368 -2.661200 -13.092353 7.311441 -0.933447 -6.094791 3.638585 -4.159946 -9.614966 -5.250104 9.079133 -10.541970 0.331030 3.121182 14.237904 9.010820 4.800299 -4.686196 
-0.001110 -0.000109 0.001158 174.621997 24.171762 -16.874907 9.480765 3.881073 7.360465 -4.516146 -20.638421 -2.817188 -8.472028 10.644478 -9.461415 6.962547 0.537543 0.663891 -7.662797 -5.756493 7.665403 5.345973 13.356700 -0.381118 16.248097 -11.876753 -10.374514 -14.241256 10.326943 1.358190 1.167672 1.918387 6.975947 0.726967 -3.330650 0.793274 1.107705 -0.271661 2.446002 0.779627 4.795823 0.540647 1.071246 -0.633928 -2.613809 -7.039854 0.426148 -7.882444 -1.820515 0.210620 -13.060245 2.067704 -6.845129 -10.164077 2.488098 -6.797543 19.201260 -8.880244 -2.748964 -13.289568 7.632806 -0.841539 -6.063369 3.569407 -4.132056 -9.518224 -5.523247 9.806522 -10.707346 0.287915 3.159901 14.126634 9.196986 4.891034 -4.787388 
-0.002139 -0.000075 0.000900 174.626213 24.206253 -17.078528 9.385840 3.769129 7.534446 -4.524439 -20.546907 -2.717206 -8.261651 10.457617 -9.535441 6.847964 0.966591 0.627225 -7.754289 -5.675064 7.900141 5.351415 13.209639 -0.372370 16.063119 -11.847724 -10.351405 -13.897953 10.284946 1.521579 1.116551 1.967516 6.898469 0.743385 -3.249835 1.034959 1.053385 -0.281154 2.375098 1.128527 4.745481 0.823609 0.911183 -0.762502 -2.240227 -7.791920 0.532923 -7.725369 -2.025294 0.100420 -12.812032 2.506839 -8.359129 -10.034626 1.155327 -6.645008 18.885845 -8.973526 -2.798673 -13.302260 8.224007 -0.871811 -6.027447 3.551876 -3.980733 -9.306661 -6.597994 11.760318 -11.422827 0.848317 3.236365 13.569638 9.397417 4.973044 -4.754703 
-0.003965 -0.000039 0.000571 174.694812 24.290223 -17.366441 9.218207 3.642524 7.906159 -4.538136 -20.305584 -2.760166 -7.974360 9.990170 -9.484429 6.689540 1.732815 0.387608 -7.987271 -5.541227 8.314628 5.351813 12.883787 -0.449663 15.774587 -11.690778 -10.243997 -13.409322 10.121316 1.728599 1.112012 1.997126 6.762623 0.669133 -3.119967 1.311590 0.907672 -0.322654 2.197408 1.640011 4.547680 1.172309 0.711775 -0.955278 -1.557400 -9.080129 0.672235 -7.429122 -2.911015 -0.397205 -12.401138 3.112011 -10.631652 -10.162466 -1.144264 -6.567584 17.688237 -9.008542 -2.789875 -13.075687 9.068377 -0.961550 -5.927113 4.065249 -3.614901 -8.822376 -8.421251 15.112256 -12.977760 1.740917 3.445356 12.002245 9.633058 5.060586 -4.599832 
-0.005866 0.000132 -0.000086 174.748127 24.386867 -17.555936 9.027150 3.572807 8.139956 -4.508012 -19.947636 -2.819081 -7.666512 9.249752 -9.371577 6.673650 2.639771 0.052762 -8.182440 -5.347747 8.572963 5.303272 12.374136 -0.470263 15.493988 -11.435044 -10.153103 -13.111562 9.819876 1.814730 1.049062 2.063105 6.492247 0.729499 -3.135773 1.548010 0.784960 -0.465089 1.907197 2.213953 4.560855 1.391736 0.322198 -1.261787 -0.679236 -10.585189 0.490024 -6.895438 -4.885569 -1.154598 -11.459329 2.889336 -12.304674 -8.660901 -3.884217 -6.165064 17.452200 -9.397664 -2.986969 -13.474167 10.112163 -1.002409 -5.845649 5.554132 -2.748064 -7.894907 -11.229678 20.120076 -14.059305 2.732870 3.712900 10.580845 10.219760 5.360525 -4.719448 
-0.007735 0.000616 -0.001007 174.847301 24.118222 -17.913953 8.873874 3.572742 8.601540 -4.509352 -19.438755 -2.824103 -7.218700 8.430433 -9.310962 6.599792 3.807128 -0.431244 -8.417990 -5.140872 8.967110 5.242957 11.883292 -0.508144 15.079011 -10.739169 -9.862758 -12.606516 9.139815 1.622540 1.106111 2.121812 6.305478 0.672733 -3.055392 2.071953 0.682024 -0.550181 1.669663 2.587592 4.524886 1.587915 -0.039903 -1.131937 -0.124227 -12.550663 0.242172 -6.219869 -8.644050 -2.360832 -10.136383 3.365592 -14.411544 -7.350037 -4.061641 -5.936427 16.721444 -9.864631 -3.260368 -13.529568 11.276128 -0.808804 -5.447600 8.584356 -1.451297 -5.943179 -13.866851 26.855662 -13.709866 2.378823 4.440426 9.582994 10.828630 5.797101 -4.866645 
-0.009500 0.001348 -0.002993 175.025893 23.682777 -18.282110 8.651555 3.583756 9.042946 -4.534530 -18.784254 -2.775011 -6.729429 7.515700 -9.180347 6.502499 5.411752 -1.171502 -8.674014 -4.824448 9.227025 5.141110 11.363077 -0.418817 14.544080 -9.915255 -9.491545 -11.924042 8.325384 1.216500 1.281354 2.044843 6.362247 0.397243 -2.896268 2.691849 0.492256 -0.719730 1.479302 3.079688 4.414453 1.572591 -0.268391 -0.821868 -0.014870 -15.046460 0.150490 -5.249654 -13.399681 -3.502192 -8.209337 3.825718 -17.312895 -5.525839 -3.430588 -6.183676 15.915027 -9.896229 -3.408484 -13.257773 12.667182 -0.402520 -4.803066 12.845745 0.146600 -2.653672 -14.925828 35.083744 -11.139966 1.200552 5.592405 9.152710 11.141199 6.225735 -4.876171 
